<?xml version="1.0" encoding="UTF-8"?>
<svg width="95px" height="94px" viewBox="0 0 95 94" version="1.1" xmlns="http://www.w3.org/2000/svg" xmlns:xlink="http://www.w3.org/1999/xlink">
    <!-- Generator: Sketch 48.2 (47327) - http://www.bohemiancoding.com/sketch -->
    <title>icon</title>
    <desc>Created with Sketch.</desc>
    <defs></defs>
    <g id="Page-1" stroke="none" stroke-width="1" fill="none" fill-rule="evenodd">
        <g id="icon" fill="#FFFFFF" fill-rule="nonzero">
            <path d="M3,54.699 C3.89844,59.5974 8.5,69.5 6.5,63.8006 C3.1016,54.1014 2.5,50.8006 2.3008,40.6016 C2.10158,45.6993 2.10158,49.5 3.00002,54.6996 L3,54.699 Z" id="Shape"></path>
            <path d="M91,36.5 C91.10156,36.69922 91.10156,36.89844 91.19922,37.10156 C91.101563,36.89844 91,36.69922 91,36.5 Z" id="Shape"></path>
            <path d="M91.199,37.199 C91.30056,37.59744 91.49978,38.09744 91.59744,38.4998 C91.39822,37.9998 91.30056,37.60136 91.199,37.199 Z" id="Shape"></path>
            <path d="M4.8008,44.801 L4.8008,45.10178 C4.898457,45.00022 4.898457,44.89866 4.8008,44.801 Z" id="Shape"></path>
            <path d="M2.1992,40.398 L2.1992,40.59722 L2.1992,40.398 Z" id="Shape"></path>
            <path d="M8.699,58.102 C7.5974,54.102 6.8982,50.2036 6.699,46.5 C6.80056,50.5 7.49978,54.3984 8.699,58.102 Z" id="Shape"></path>
            <path d="M47.199,91.199 C48.3982,91.30056 49.699,91.30056 50.9998,91.199 L49.199,91.199 L50.09744,91.199 L51.89824,91.199 C52.29668,91.199 52.79668,91.09744 53.19904,91.09744 L52.09744,91.09744 C50.59744,91.09744 49.19904,91.199 47.89824,91.199 C46.89824,91.101343 45.99984,90.99978 44.99984,90.89822 C45.6014,90.99978 46.19904,91.09744 46.80064,91.199 L46.4022,91.199 L47.00376,91.199 L47.19907,91.199 C47.101413,91.199 47.101413,91.199 47.19907,91.199 L47.199,91.199 Z" id="Shape"></path>
            <path d="M88.801,65.5 C87.5002,67.5 86.6994,69 85.801,70.5 C86.301,69.80078 86.69944,69.1016 87.1018,68.5 C87.80102,67.60156 88.301,66.6016 88.801,65.5 Z" id="Shape"></path>
            <path d="M60.699,89 C55.699,90.1016 50.5,90.3984 45.301,89.89844 C50.8987,90.69922 56,90.39844 60.699,89 Z" id="Shape"></path>
            <path d="M88.199,72.102 C92.3006,65.5004 94.4998,57.5 93.9998,48.102 C93.4998,40.3012 93.39824,47.90278 93.30058,52.4028 L93.30058,51.70358 C93.40214,48.90278 93.19902,46.00438 92.69902,43.20358 C92.80058,44.10202 92.9998,45.00438 93.09746,45.90278 C93.29668,47.40278 93.29668,48.90278 93.29668,50.40278 C93.10137,44.60198 91.99978,39.00078 89.99978,34.10178 C90.39822,34.90256 90.699,35.70338 90.99978,36.50018 C89.80058,33.00018 88.19898,29.80098 86.30058,27.00018 C81.40218,19.60178 73.90258,14.19918 63.80058,11.69918 C70.49978,14.30078 76.40258,17.59758 81.19858,22.00018 C88.69858,30.89858 92.30058,39.10218 92.39758,48.50018 C92.29602,47.39858 92.19836,46.30098 91.99914,44.89858 C89.99914,30.79658 93.10074,51.19938 90.60074,60.89858 C90.2023,62.39858 89.60074,63.89858 88.90154,65.39858 C89.20232,64.89858 89.5031,64.50014 89.90154,64.00018 L91.10074,61.69938 C92.20234,59.59778 92.79994,57.09778 93.20234,54.39858 C92.40156,62.19938 89.50314,68.89858 85.00314,74.50058 C86.80394,71.89898 88.40154,69.00058 89.40154,65.89898 L89.40154,66.00054 C89.90154,65.00054 88.90154,66.30132 87.40154,68.60214 C86.60076,70.00054 85.79994,71.30134 84.90154,72.50054 C84.79998,72.6021 84.70232,72.80132 84.5031,72.89898 C85.10466,72.0982 85.6047,71.29738 86.0031,70.50058 C85.30388,71.50058 84.6047,72.60218 83.8039,73.60218 C76.8977,81.00058 69.3979,86.60218 60.6989,89.00018 C63.4997,88.39862 66.1989,87.50018 68.6989,86.39858 C58.4999,91.50018 47.8009,91.79698 38.1989,88.59778 C40.4997,89.19934 42.8981,89.59778 45.3005,89.89858 C43.9997,89.69936 42.6989,89.50014 41.3005,89.0978 C37.1013,88.0978 33.3005,86.5978 29.9025,84.797 C29.20328,84.39856 28.4025,83.89856 27.7033,83.3986 C22.6017,79.797 17.9025,75.0002 13.9023,69.3986 C12.8007,67.797 11.9023,66.0002 11.0039,64.297 C6.5,53.102 6.6016,39.5 10.89843,26 C11.29687,25.10156 11.79687,24.1016 12.29683,23.1992 C12.79683,22.30076 14.29683,20 15.89843,17.8008 C16.79687,17.10158 17.69923,16.4024 18.79683,15.6992 C18.19527,15.6992 17.69523,15.6992 17.29683,15.80076 C22.99603,14.10156 23.79683,14.10156 20.89843,13.49996 C25.29683,13.10152 27.79683,10.10156 25.50003,12.49996 C22.10163,15.89836 27.39843,11.80074 29.30083,10.30076 C30.30083,9.90232 31.50003,9.40232 31.90243,8.99996 C32.10165,8.80074 32.30087,8.69918 32.40243,8.49996 C33.80083,9.10152 34.60163,7.10156 34.70323,5.30076 C36.90243,0.69916 34.60167,-0.19924 31.40243,0.30076 C30.19933,0.398417 29.00013,0.6992 27.89853,0.99998 C27.00009,1.30076 26.09773,1.49998 25.39853,1.99998 C22.39853,3.89838 10.50053,12.80098 14.00053,12.10198 C12.89893,13.10198 11.69973,14.20358 11.39893,14.60198 C11.50049,14.50042 11.59815,14.40276 11.69971,14.40276 C11.00049,15.19964 10.00051,16.19966 9.50051,17.00046 C3.69971,26.30126 9.19973,21.39886 12.19971,17.30124 C12.39893,17.19968 12.80127,17.19968 13.19971,17.00046 C13.30127,17.00046 13.30127,17.00046 13.39893,16.8989 C13.29737,17.00046 13.19971,17.00046 13.09815,17.09812 C9.79735,20.79732 5.49655,28.49612 3.09815,34.09812 C3.59815,31.69972 4.09815,29.39892 4.49655,26.79732 C-1.30035,37.10232 0.89885,48.10232 3.69967,59.10232 C1.80127,51.00072 1.39887,48.70032 2.19967,40.39932 C2.30123,39.00092 2.50045,37.59852 2.69967,36.39932 C8.30127,31.29772 5.39887,26.59852 14.30167,19.00132 C8.30167,28.00132 6.00087,36.89932 6.70007,46.60332 C6.39929,39.90412 7.70007,33.00132 10.80167,26.10332 C6.80167,37.90432 6.20007,50.60332 9.90323,61.70532 C9.40323,60.50612 9.00479,59.40452 8.60243,58.20532 C9.10243,60.10372 9.70403,62.00612 10.40323,64.00612 C10.10245,63.50612 9.90323,63.10768 9.60245,62.60772 L11.90325,67.50612 C12.90325,69.60772 14.00485,71.60772 15.30165,73.40452 C14.60243,72.50608 13.90325,71.60372 13.10245,70.70532 C15.50085,74.10372 17.30165,76.30692 19.30165,78.30692 C20.70005,79.80692 22.10245,81.10772 23.60245,82.30692 C24.30167,82.90848 25.00085,83.40852 25.80165,84.10772 C34.40325,89.40852 42.90365,92.50612 51.60265,92.40852 C44.80185,92.80696 38.10265,91.51008 31.20465,87.90852 C8.50165,75.90052 1.89965,50.90052 8.80265,27.20152 C5.80265,37.30352 4.90425,41.30352 6.30265,51.90052 C8.10345,66.09952 5.30265,48.90052 4.90425,45.09972 C5.50581,54.90052 7.80265,63.09972 11.30265,69.70172 C10.70109,68.80328 10.10345,67.90092 9.60345,67.10012 C6.40035,60.50242 4.70115,53.00212 4.70115,44.80312 C4.80271,37.10392 9.00195,26.90512 4.59959,37.00232 C2.20119,39.80312 2.40039,46.50232 2.90039,49.90032 C4.50199,62.20132 9.90039,70.70132 14.00239,75.59932 C17.20159,79.90012 21.00239,83.40012 25.20139,86.09932 C21.70139,83.99772 18.59979,81.59932 15.40059,78.09932 C13.50219,76.09932 7.29899,66.70132 7.70139,67.70132 C12.00219,80.09932 24.80339,89.40032 37.30339,92.40032 C57.50239,97.29872 76.70139,90.29872 87.00239,74.20132 C87.40083,73.5021 87.80317,72.80292 88.20159,72.10362 L88.199,72.102 Z M23.898,10.7 C23.69878,10.89922 23.398,11.09844 23.09722,11.2 C23.398,11.00078 23.60113,10.89922 23.898,10.7 Z M81.1985,76.69996 C81.6985,76.0984 82.1985,75.59836 82.5969,75.09836 C81.0969,77.09836 79.6985,78.79756 78.6985,79.69996 C78.39772,80.00074 78.09694,80.19996 77.80006,80.50074 C78.30006,79.80152 79.39776,78.60234 81.19846,76.69994 L81.1985,76.69996 Z M46.3975,91.10196 C41.6983,90.80118 37.3975,89.70356 33.1985,87.80116 C36.9993,89.40276 40.8977,90.40276 44.9995,90.80116 C41.3003,90.1996 37.6011,89.00036 34.1985,87.30116 C35.09694,87.60194 35.9993,87.90272 36.8977,88.1996 C41.7961,90.0004 46.9997,91.0004 52.0967,91.0004 L53.1983,91.0004 L53.09674,91.0004 L53.49518,91.0004 L54.29596,91.0004 C53.49518,91.10196 52.59676,91.10196 51.79596,91.10196 L50.89752,91.10196 C52.09672,91.10196 53.29592,91.0004 54.49912,90.90274 C55.60072,90.90274 56.49912,90.80118 57.29992,90.80118 C53.90152,91.40274 50.49912,91.5004 47.19792,91.10196 L47.09636,91.10196 C43.49866,91.199617 44.19796,91.199617 46.39714,91.10196 L46.3975,91.10196 Z M66.2995,88.80116 C66.40106,88.80116 66.49872,88.6996 66.69794,88.6996 C66.39716,88.80116 66.09638,88.89882 65.7995,89.00038 C65.99872,88.89882 66.10028,88.89882 66.2995,88.80116 Z M79.9985,81.60196 C78.4985,83.10196 76.8969,84.40276 75.2993,85.60196 C70.4009,88.90276 64.4983,91.20356 57.6973,92.10196 C52.1973,92.80118 46.9983,92.69962 41.9983,91.80118 C55.3963,94.00038 69.7993,90.30118 79.9983,81.60218 L79.9985,81.60196 Z M4.1975,46.10196 C4.1975,47.30116 4.29906,48.60196 4.49828,50.00036 C4.99828,54.69956 5.99828,59.00036 7.29908,63.00036 C5.09988,58.30116 4.09988,53.50036 4.19748,46.10236 L4.1975,46.10196 Z M47.9985,92.99996 C57.4985,93.3984 66.9985,90.89836 74.9985,85.80076 C67.4985,91.10156 58.3965,93.69916 47.9985,92.99996 Z" id="Shape"></path>
            <path d="M92.199,41.102 C92.199,41.20356 92.30056,41.40278 92.30056,41.50044 C92.30056,41.30122 92.30056,41.19966 92.199,41.102 Z" id="Shape"></path>
            <path d="M92.301,41.5 C92.40256,42.10156 92.50022,42.6016 92.60178,43.1992 C92.60178,42.60154 92.39866,42 92.301,41.5 Z" id="Shape"></path>
            <path d="M91.602,38.5 C91.80122,39.39844 92.102,40.1992 92.30122,41.1016 C92.00044,40.19926 91.80122,39.3008 91.602,38.5 Z" id="Shape"></path>
        </g>
    </g>
</svg>